<?xml version="1.0" encoding="iso-8859-1"?>
<!-- Generator: Adobe Illustrator 19.0.0, SVG Export Plug-In . SVG Version: 6.00 Build 0)  -->
<svg version="1.1" id="Layer_1" xmlns="http://www.w3.org/2000/svg" xmlns:xlink="http://www.w3.org/1999/xlink" x="0px" y="0px"
	 viewBox="0 0 511.999 511.999" style="enable-background:new 0 0 511.999 511.999;" xml:space="preserve">
<path style="fill:#5B5D6E;" d="M220.359,300.262c-53.902,22.865-127.689,53.701-174.021,76.057
	c-15.126,7.385-32.107-3.33-36.623-24.167c-12.954-63.222-12.954-129.081,0-192.303c4.517-20.838,21.497-31.552,36.623-24.167
	c46.332,22.356,120.119,53.192,174.021,76.057V300.262z"/>
<g>
	<path style="fill:#515262;" d="M99.312,302.398c-6.51,0-12.19-4.789-13.132-11.42c-1.029-7.262,4.029-13.979,11.29-15.007
		l117.062-16.555c7.227-0.968,13.97,4.02,15.008,11.29c1.029,7.262-4.029,13.979-11.29,15.007l-117.063,16.555
		C100.557,302.355,99.935,302.398,99.312,302.398z"/>
	<path style="fill:#515262;" d="M216.408,252.714c-0.623,0-1.245-0.043-1.876-0.129L97.47,236.03
		c-7.262-1.029-12.319-7.746-11.29-15.007c1.038-7.262,7.78-12.215,15.008-11.29l117.062,16.555
		c7.262,1.029,12.319,7.746,11.29,15.008C228.597,247.925,222.918,252.714,216.408,252.714z"/>
</g>
<path style="fill:#5B5D6E;" d="M291.64,211.737c53.902-22.865,127.689-53.701,174.021-76.057
	c15.126-7.385,32.107,3.33,36.623,24.167c12.954,63.222,12.954,129.081,0,192.303c-4.517,20.838-21.497,31.552-36.623,24.167
	c-46.332-22.356-120.119-53.192-174.021-76.057V211.737z"/>
<g>
	<path style="fill:#515262;" d="M412.687,209.602c6.51,0,12.19,4.789,13.132,11.42c1.029,7.262-4.029,13.979-11.29,15.008
		l-117.062,16.555c-7.227,0.968-13.97-4.02-15.008-11.29c-1.029-7.262,4.029-13.979,11.29-15.008l117.062-16.555
		C411.442,209.645,412.065,209.602,412.687,209.602z"/>
	<path style="fill:#515262;" d="M295.591,259.285c0.623,0,1.245,0.043,1.876,0.129l117.062,16.555
		c7.262,1.029,12.319,7.746,11.29,15.008c-1.038,7.262-7.78,12.215-15.008,11.29l-117.061-16.555
		c-7.262-1.029-12.319-7.746-11.29-15.008C283.401,264.074,289.081,259.285,295.591,259.285z"/>
</g>
<path style="fill:#65687A;" d="M309.195,291.41c0,9.738-7.967,17.705-17.705,17.705h-70.82c-9.738,0-17.705-7.967-17.705-17.705
	v-70.82c0-9.738,7.967-17.705,17.705-17.705h70.82c9.738,0,17.705,7.967,17.705,17.705V291.41z"/>
<g>
</g>
<g>
</g>
<g>
</g>
<g>
</g>
<g>
</g>
<g>
</g>
<g>
</g>
<g>
</g>
<g>
</g>
<g>
</g>
<g>
</g>
<g>
</g>
<g>
</g>
<g>
</g>
<g>
</g>
</svg>
