<?xml version="1.0" encoding="iso-8859-1"?>
<!-- Generator: Adobe Illustrator 19.0.0, SVG Export Plug-In . SVG Version: 6.00 Build 0)  -->
<svg version="1.1" id="Layer_1" xmlns="http://www.w3.org/2000/svg" xmlns:xlink="http://www.w3.org/1999/xlink" x="0px" y="0px"
	 viewBox="0 0 512 512" style="enable-background:new 0 0 512 512;" xml:space="preserve">
<g>
	<g>
		<path d="M111.013,216.961c-7.281-0.82-14.802-0.638-22.337,0.453V114.545c0-8.836-7.164-16-16-16s-16,7.164-16,16v113.07
			C25.326,243.367,0,274.746,0,315.027c0,58.257,53.885,102.204,111.547,98.172C75.319,353.066,74.363,278.595,111.013,216.961z"/>
	</g>
</g>
<g>
	<g>
		<path d="M370.548,228.591c-32.046,20.146-67.524,67.236-88.409,101.108h-52.282c-20.543-33.304-56.075-80.783-88.406-101.108
			c-35.175,54.923-33.943,123.524,3.537,177.372c35.556-12.09,69.223-35.468,81.177-44.262h59.669
			c11.953,8.795,45.619,32.173,81.177,44.262C404.423,352.212,405.786,283.61,370.548,228.591z"/>
	</g>
</g>
<g>
	<g>
		<path d="M455.324,227.626V114.545c0-8.836-7.164-16-16-16c-8.836,0-16,7.164-16,16v102.875c-7.539-1.095-15.06-1.279-22.337-0.459
			c36.653,61.638,35.691,136.111-0.534,196.238C458.022,417.224,512,373.381,512,315.027
			C512,274.718,486.655,243.37,455.324,227.626z"/>
	</g>
</g>
<g>
</g>
<g>
</g>
<g>
</g>
<g>
</g>
<g>
</g>
<g>
</g>
<g>
</g>
<g>
</g>
<g>
</g>
<g>
</g>
<g>
</g>
<g>
</g>
<g>
</g>
<g>
</g>
<g>
</g>
</svg>
