<?xml version="1.0" encoding="iso-8859-1"?>
<!-- Generator: Adobe Illustrator 19.0.0, SVG Export Plug-In . SVG Version: 6.00 Build 0)  -->
<svg version="1.1" id="Layer_1" xmlns="http://www.w3.org/2000/svg" xmlns:xlink="http://www.w3.org/1999/xlink" x="0px" y="0px"
	 viewBox="0 0 512 512" style="enable-background:new 0 0 512 512;" xml:space="preserve">
<g>
	<g>
		<rect x="192" y="38.4" width="128" height="51.2"/>
	</g>
</g>
<g>
	<g>
		<path d="M349.862,380.27l-46.938-25.6L256,380.266l-46.925-25.597l-46.938,25.6l-46.938-25.6V448c0,14.139,11.461,25.6,25.6,25.6
			h230.4c14.139,0,25.6-11.461,25.6-25.6v-93.33L349.862,380.27z"/>
	</g>
</g>
<g>
	<g>
		<path d="M417.605,171.923C404.9,145.101,377.878,128,348.198,128H163.802c-29.679,0-56.701,17.101-69.407,43.923L0,371.2
			l76.8,38.4l38.4-76.8v-21.871l46.938,25.6l46.939-25.6L256,336.526l46.924-25.596l46.939,25.6l46.938-25.6v21.87l38.4,76.8
			l76.8-38.4L417.605,171.923z"/>
	</g>
</g>
<g>
</g>
<g>
</g>
<g>
</g>
<g>
</g>
<g>
</g>
<g>
</g>
<g>
</g>
<g>
</g>
<g>
</g>
<g>
</g>
<g>
</g>
<g>
</g>
<g>
</g>
<g>
</g>
<g>
</g>
</svg>
