<?xml version="1.0" encoding="iso-8859-1"?>
<!-- Generator: Adobe Illustrator 18.0.0, SVG Export Plug-In . SVG Version: 6.00 Build 0)  -->
<!DOCTYPE svg PUBLIC "-//W3C//DTD SVG 1.1//EN" "http://www.w3.org/Graphics/SVG/1.1/DTD/svg11.dtd">
<svg version="1.1" id="Capa_1" xmlns="http://www.w3.org/2000/svg" xmlns:xlink="http://www.w3.org/1999/xlink" x="0px" y="0px"
	 viewBox="0 0 429.927 429.927" style="enable-background:new 0 0 429.927 429.927;" xml:space="preserve">
<g>
	<path d="M169.265,203.997c1.019,1.765,2.867,2.751,4.768,2.751c0.934,0,1.879-0.238,2.745-0.738l13.833-7.987v15.973
		c0,3.038,2.463,5.5,5.5,5.5s5.5-2.462,5.5-5.5v-15.974l13.834,7.987c0.866,0.5,1.812,0.738,2.745,0.738
		c1.9,0,3.749-0.987,4.768-2.751c1.52-2.63,0.618-5.994-2.013-7.513l-13.833-7.987l13.833-7.987
		c2.631-1.519,3.532-4.883,2.013-7.513c-1.52-2.632-4.884-3.531-7.513-2.013l-13.834,7.987v-15.974c0-3.038-2.463-5.5-5.5-5.5
		s-5.5,2.462-5.5,5.5v15.973l-13.833-7.987c-2.631-1.518-5.994-0.618-7.513,2.013c-1.52,2.63-0.618,5.994,2.013,7.513l13.833,7.987
		l-13.833,7.987C168.646,198.003,167.745,201.367,169.265,203.997z"/>
	<path d="M429.75,123.254l-0.419-3.796c-1.135-10.286-9.529-18.039-19.621-18.582l-1.421-22.825
		c3.568-1.207,6.749-3.371,9.248-6.343c3.716-4.417,5.413-10.01,4.781-15.751l-0.219-1.982
		c-1.707-15.504-15.766-26.889-31.321-25.372c-46.076,4.503-92.913,7.238-139.314,8.175c-1.624-18.448-17.151-32.968-36.013-32.968
		h-60.676c-18.117,0-33.163,13.394-35.762,30.799c-26.65-1.416-53.441-3.425-79.975-6.015C23.54,27.085,9.54,38.464,7.825,53.978
		l-0.218,1.976c-0.633,5.739,1.064,11.333,4.781,15.752c2.501,2.974,5.683,5.138,9.253,6.345l-1.426,22.822
		c-10.09,0.546-18.485,8.301-19.62,18.584l-0.419,3.797c-0.847,7.679,1.368,15.213,6.235,21.214
		c4.853,5.981,11.739,9.69,19.394,10.442c38.66,3.798,77.926,6.44,116.808,7.889v177.152c0,3.038,2.463,5.5,5.5,5.5
		s5.5-2.462,5.5-5.5v-21.142h13.5v21.142c0,3.038,2.463,5.5,5.5,5.5s5.5-2.462,5.5-5.5v-21.142h13.5v21.142
		c0,3.038,2.463,5.5,5.5,5.5s5.5-2.462,5.5-5.5v-21.142h8v76.257v25.551c0,3.038,2.463,5.5,5.5,5.5s5.5-2.462,5.5-5.5v-20.051h13.5
		v20.051c0,3.038,2.463,5.5,5.5,5.5s5.5-2.462,5.5-5.5v-20.051h13.5v20.051c0,3.038,2.463,5.5,5.5,5.5s5.5-2.462,5.5-5.5v-20.051
		h13.5v20.051c0,3.038,2.463,5.5,5.5,5.5s5.5-2.462,5.5-5.5v-20.051h13.5v20.051c0,3.038,2.463,5.5,5.5,5.5s5.5-2.462,5.5-5.5
		v-25.551v-233.73c28.031-1.516,56.395-3.667,84.396-6.416c7.713-0.756,14.645-4.482,19.52-10.492
		C428.389,138.438,430.598,130.917,429.75,123.254z M221.613,341.292c2.376,0.847,4.898,1.313,7.501,1.313
		c4.128,0,8.063-1.134,11.499-3.213v0.559c0,3.038,2.463,5.5,5.5,5.5s5.5-2.462,5.5-5.5v-7.319c0.494-0.065,0.992-0.11,1.499-0.11
		c3.063,0,5.928,1.204,8.072,3.393c4.229,4.315,9.885,6.691,15.926,6.692c0.001,0,0.001,0,0.002,0c6.041,0,11.696-2.376,15.926-6.69
		c0.016-0.016,0.031-0.032,0.047-0.049c2.139-2.159,4.987-3.348,8.028-3.348c2.801,0,5.431,1.018,7.5,2.863v14.453
		c-2.376-0.847-4.898-1.313-7.5-1.313c-6.041,0-11.697,2.376-15.926,6.691c-0.016,0.016-0.032,0.032-0.048,0.049
		c-2.139,2.159-4.986,3.347-8.027,3.347h-0.001c-3.062,0-5.927-1.204-8.071-3.393c-4.229-4.315-9.885-6.692-15.928-6.692
		c-6.042,0-11.698,2.377-15.928,6.693c-2.143,2.187-5.009,3.391-8.07,3.391c-2.801,0-5.432-1.018-7.501-2.864V341.292z
		 M153.613,256.647c2.078,0.629,4.261,0.959,6.498,0.959c6.042,0,11.698-2.376,15.928-6.692c2.143-2.187,5.009-3.391,8.07-3.391
		c3.063,0,5.928,1.204,8.072,3.393c4.229,4.315,9.885,6.691,15.927,6.692c0.001,0,0.001,0,0.001,0
		c6.041,0,11.697-2.376,15.932-6.697c2.143-2.186,5.009-3.39,8.07-3.39s8.502,2.967,8.502,2.967v14.712
		c-2.659-1.096-5.533-1.676-8.502-1.676c-6.041,0-11.697,2.376-15.932,6.697c-2.143,2.186-5.009,3.39-8.07,3.39
		s-5.928-1.204-8.072-3.393c-4.229-4.315-9.885-6.692-15.928-6.692c-6.042,0-11.698,2.377-15.928,6.693
		c-2.143,2.187-5.009,3.391-8.07,3.391c-2.365,0-4.61-0.726-6.498-2.061V256.647z M301.113,321.52
		c-6.041,0-11.697,2.376-15.926,6.691c-0.016,0.016-0.032,0.032-0.048,0.049c-2.139,2.159-4.986,3.347-8.027,3.347
		c-0.001,0-0.001,0-0.001,0c-3.062,0-5.927-1.205-8.071-3.393c-4.229-4.315-9.885-6.692-15.928-6.692
		c-0.504,0-1.001,0.041-1.499,0.074V163.805c18.825-0.354,37.935-0.996,57-1.916v160.944
		C306.237,321.987,303.716,321.52,301.113,321.52z M154.775,14.809h60.676c13.874,0,25.162,11.288,25.162,25.162v198.225
		c-2.659-1.096-5.533-1.676-8.502-1.676c-6.041,0-11.697,2.376-15.932,6.697c-2.143,2.186-5.009,3.39-8.07,3.39
		s-5.928-1.205-8.072-3.393c-4.229-4.315-9.885-6.692-15.928-6.692c-6.042,0-11.698,2.377-15.928,6.693
		c-2.143,2.187-5.009,3.391-8.07,3.391c-2.365,0-4.61-0.726-6.498-2.061V33.309c0-3.038-2.463-5.5-5.5-5.5s-5.5,2.462-5.5,5.5v2.39
		c-4.172-0.166-8.349-0.347-12.533-0.543C132.334,23.578,142.548,14.809,154.775,14.809z M26.882,143.963
		c-4.706-0.462-8.941-2.744-11.927-6.425c-3.001-3.7-4.366-8.345-3.845-13.078l0.419-3.796c0.581-5.266,5.161-9.132,10.467-8.802
		l3.032,0.189c1.449,0.095,2.889-0.4,3.981-1.365c1.094-0.965,1.76-2.325,1.851-3.781l1.685-26.978l17.777,2.582
		c0.269,0.039,0.535,0.058,0.798,0.058c2.688,0,5.038-1.972,5.437-4.71c0.437-3.006-1.646-5.797-4.653-6.233
		c0,0-24.061-3.482-24.132-3.486c-2.73-0.171-5.203-1.418-6.965-3.512c-1.761-2.094-2.565-4.746-2.266-7.462l0.219-1.982
		c1.056-9.556,9.674-16.571,19.209-15.64c34.74,3.391,69.913,5.791,104.645,7.167v105.083
		C104.087,150.348,65.185,147.726,26.882,143.963z M153.613,283.649c2.078,0.629,4.261,0.959,6.498,0.959
		c6.042,0,11.699-2.377,15.928-6.692c2.143-2.187,5.009-3.391,8.07-3.391c3.063,0,5.928,1.204,8.073,3.393
		c4.229,4.315,9.885,6.691,15.927,6.691c6.041,0,11.697-2.376,15.932-6.696c2.143-2.186,5.009-3.39,8.07-3.39
		s8.502,2.967,8.502,2.967v30.32h-24.442c-0.02,0-0.039-0.003-0.058-0.003s-62.5,0.003-62.5,0.003V283.649z M240.613,318.809v6.536
		c-1.221,0.831-2.37,1.789-3.429,2.87c-2.143,2.187-5.009,3.391-8.07,3.391c-2.801,0-5.432-1.018-7.501-2.864v-9.932H240.613z
		 M221.613,368.295c2.376,0.847,4.898,1.313,7.501,1.313c6.042,0,11.699-2.377,15.928-6.692c2.143-2.187,5.009-3.391,8.07-3.391
		c3.063,0,5.928,1.204,8.073,3.393c4.229,4.315,9.884,6.691,15.926,6.691c0,0,0,0,0.001,0c6.04,0,11.697-2.376,15.926-6.69
		c0.016-0.016,0.031-0.032,0.047-0.049c2.139-2.159,4.987-3.348,8.028-3.348c2.801,0,5.431,1.018,7.5,2.863v27.181h-87V368.295z
		 M414.986,137.499c-3.008,3.708-7.287,6.007-12.05,6.474c-29.572,2.903-59.551,5.145-89.104,6.661
		c-20.785,1.064-41.677,1.781-62.219,2.169V47.776c46.708-0.94,93.854-3.693,140.232-8.225c9.601-0.938,18.269,6.076,19.32,15.631
		l0.219,1.982c0.3,2.72-0.505,5.371-2.266,7.464c-1.76,2.092-4.231,3.339-6.96,3.51c-3.031,0.19-5.334,2.8-5.146,5.831l1.717,27.573
		c-11.41,0.902-39.634,2.787-68.472,2.027c-3.001-0.081-5.563,2.317-5.643,5.354s2.316,5.563,5.354,5.643
		c4.741,0.125,9.463,0.179,14.103,0.179c31.487,0,63.86-2.878,63.86-2.878c5.292-0.323,9.885,3.534,10.466,8.799l0.419,3.796
		C419.339,129.18,417.978,133.81,414.986,137.499z"/>
</g>
<g>
</g>
<g>
</g>
<g>
</g>
<g>
</g>
<g>
</g>
<g>
</g>
<g>
</g>
<g>
</g>
<g>
</g>
<g>
</g>
<g>
</g>
<g>
</g>
<g>
</g>
<g>
</g>
<g>
</g>
</svg>
