<?xml version="1.0" encoding="iso-8859-1"?>
<!-- Generator: Adobe Illustrator 19.0.0, SVG Export Plug-In . SVG Version: 6.00 Build 0)  -->
<svg version="1.1" id="Capa_1" xmlns="http://www.w3.org/2000/svg" xmlns:xlink="http://www.w3.org/1999/xlink" x="0px" y="0px"
	 viewBox="0 0 50.001 50.001" style="enable-background:new 0 0 50.001 50.001;" xml:space="preserve">
<g>
	<g>
		<path d="M48.8,0.975C48.787,0.433,48.343,0,47.8,0h-45.6c-0.543,0-0.986,0.433-1,0.975l-1.2,48
			c-0.007,0.27,0.096,0.53,0.284,0.723S0.731,50,1,50H18.94c0.458,0,0.857-0.311,0.97-0.755L25,29.085l5.091,20.16
			C30.203,49.689,30.603,50,31.061,50H49c0.27,0,0.527-0.109,0.716-0.302s0.291-0.454,0.284-0.723L48.8,0.975z M18.161,48H2.026
			l0.14-5.612c0.082,0.03,0.162,0.066,0.254,0.074l16.497,1.373c0.028,0.002,0.057,0.003,0.084,0.003
			c0.077,0,0.148-0.025,0.221-0.042L18.161,48z M25,24c-0.458,0-0.857,0.311-0.97,0.755l-4.38,17.346
			c-0.156-0.138-0.344-0.241-0.567-0.26L2.586,40.469c-0.131-0.012-0.256,0.006-0.373,0.041L3.176,2h43.648l0.964,38.564
			c-0.198-0.267-0.51-0.439-0.872-0.409L30.42,41.529c-0.072,0.006-0.133,0.038-0.2,0.058l-4.25-16.831
			C25.858,24.311,25.458,24,25,24z M31.84,48l-1.133-4.488l16.377-1.363c0.315-0.026,0.571-0.204,0.734-0.447L47.975,48H31.84z"/>
		<path d="M31.496,13.443c-0.007-1.054-0.35-2.245-0.964-3.354C30.076,9.266,29.502,8.548,28.873,8h17.141V6H4v2h15.475
			c-0.724,0.666-1.403,1.53-1.974,2.561c-0.792,1.429-1.232,2.958-1.241,4.306c-0.011,1.566,0.554,2.745,1.59,3.319
			c0.416,0.231,0.874,0.345,1.359,0.345c0.723,0,1.505-0.254,2.297-0.756c1.138-0.722,2.201-1.906,2.993-3.335
			c0.179-0.322,0.333-0.651,0.476-0.98c0.6,1.01,1.369,1.854,2.198,2.38c0.629,0.399,1.271,0.602,1.865,0.602
			c0.406,0,0.792-0.095,1.137-0.286C31.024,15.685,31.505,14.696,31.496,13.443z M22.749,13.47
			c-0.623,1.125-1.467,2.078-2.315,2.616c-0.659,0.417-1.264,0.547-1.615,0.351h-0.001c-0.355-0.197-0.565-0.779-0.56-1.556
			c0.007-1.004,0.368-2.225,0.992-3.35c1.138-2.054,2.681-3.052,3.551-3.052c0.147,0,0.276,0.029,0.38,0.086
			c0.355,0.197,0.565,0.779,0.56,1.556C23.735,11.125,23.373,12.346,22.749,13.47z M29.205,14.407
			C29.204,14.407,29.204,14.407,29.205,14.407c-0.147,0.084-0.505,0.034-0.961-0.256c-0.604-0.382-1.207-1.066-1.656-1.877
			c-0.448-0.809-0.709-1.683-0.714-2.398c-0.004-0.543,0.145-0.869,0.292-0.951c0.042-0.023,0.101-0.036,0.173-0.036
			c0.184,0,0.459,0.083,0.788,0.292c0.604,0.383,1.207,1.067,1.655,1.877c0.449,0.81,0.709,1.684,0.715,2.398
			C29.5,13.999,29.353,14.325,29.205,14.407z"/>
	</g>
</g>
<g>
</g>
<g>
</g>
<g>
</g>
<g>
</g>
<g>
</g>
<g>
</g>
<g>
</g>
<g>
</g>
<g>
</g>
<g>
</g>
<g>
</g>
<g>
</g>
<g>
</g>
<g>
</g>
<g>
</g>
</svg>
